<svg version="1.1" id="Layer_1" xmlns="http://www.w3.org/2000/svg" xmlns:xlink="http://www.w3.org/1999/xlink" x="0px" y="0px"
	 width="100%" viewBox="0 0 512 512" enable-background="new 0 0 512 512" xml:space="preserve">
<path fill="#274027" opacity="1.000000" stroke="none" 
	d="
M270.151245,214.163544 
	C266.101776,218.338974 261.899048,221.894165 258.926117,226.243637 
	C266.595428,233.639603 274.088257,240.865356 282.125092,248.615738 
	C282.280396,248.586487 283.088318,247.448654 283.952087,246.484177 
	C285.767120,244.457489 287.327271,244.330093 289.342010,246.386337 
	C291.248657,248.332260 290.851288,249.722565 289.130524,251.401764 
	C285.913269,254.541260 282.749390,257.738403 279.645630,260.990143 
	C277.971008,262.744690 276.567688,262.496246 275.015747,260.870331 
	C273.658783,259.448669 272.314331,257.956238 274.387085,256.294586 
	C277.542908,253.764694 276.006287,251.952927 273.884705,249.845993 
	C268.480560,244.479172 263.190063,238.997910 257.954620,233.664856 
	C251.092056,240.682693 244.732788,247.185837 237.964249,254.107529 
	C237.958511,254.645462 239.010544,255.325531 239.808380,256.124908 
	C241.468521,257.788239 241.243027,259.239258 239.621338,260.811646 
	C238.008621,262.375305 236.551834,262.570221 234.909897,260.902924 
	C231.638641,257.581116 228.351990,254.273453 225.018555,251.014313 
	C223.398102,249.430008 223.257538,248.044846 224.941345,246.357422 
	C226.641022,244.654114 228.147217,244.127884 229.979111,246.116852 
	C230.974335,247.197372 232.144638,248.116638 233.003021,248.896881 
	C240.673889,241.231934 248.150452,233.761108 255.950531,225.967026 
	C249.490784,219.425247 242.663712,212.460068 235.770599,205.560867 
	C233.595901,203.384247 232.158997,205.409882 230.821503,206.787323 
	C228.969818,208.694290 227.390793,208.967850 225.348541,206.917908 
	C223.115479,204.676453 224.254700,203.180573 225.951996,201.511932 
	C229.038879,198.477203 232.077621,195.393387 235.128494,192.322159 
	C236.489090,190.952515 237.853470,190.449905 239.359726,192.133301 
	C240.598907,193.518234 242.229416,195.012054 240.421326,196.816422 
	C237.437286,199.794357 239.274658,201.644287 241.482193,203.773117 
	C245.916016,208.048843 250.241531,212.437744 254.573013,216.818253 
	C256.158417,218.421585 257.716034,219.355377 259.645569,217.363647 
	C265.191498,211.638916 270.739868,205.916534 276.504974,199.968597 
	C274.384613,196.917130 271.135986,193.435165 277.786713,190.877090 
	C282.625031,194.844391 286.951385,199.576828 291.381165,204.247665 
	C289.027161,208.204422 286.776428,210.284729 283.295135,206.002487 
	C281.559692,203.867783 279.929321,204.589767 278.281464,206.247955 
	C275.700195,208.845413 273.040588,211.365036 270.151245,214.163544 
z"/>
<path fill="#274027" opacity="1.000000" stroke="none" 
	d="
M245.138306,224.959198 
	C245.537170,225.701767 246.022217,226.315628 245.875885,226.579941 
	C240.099350,237.013489 226.101440,245.463623 215.121262,234.002274 
	C207.926743,226.492447 207.845016,226.570770 215.192535,219.146622 
	C221.645645,212.626205 232.907562,212.527328 239.384109,218.958405 
	C241.266449,220.827499 243.083221,222.762619 245.138306,224.959198 
M234.189804,232.003586 
	C235.757797,230.156448 238.089294,228.946350 238.913483,226.541290 
	C232.766953,215.670090 219.439590,217.525589 215.988434,226.837769 
	C221.737656,234.301941 226.030380,235.682678 234.189804,232.003586 
z"/>
<path fill="#274027" opacity="1.000000" stroke="none" 
	d="
M305.229065,224.909027 
	C306.784088,227.173996 305.209198,228.293365 304.105225,229.445023 
	C301.684540,231.970245 299.233093,234.471924 296.686127,236.868378 
	C294.243439,239.166672 282.333160,240.320038 279.527283,238.052658 
	C275.924347,235.141205 272.830017,231.590378 269.591766,228.242249 
	C268.175415,226.777832 269.204895,225.498154 270.219635,224.321228 
	C275.546295,218.143051 281.093964,212.789749 290.467010,214.454849 
	C293.550049,215.002563 296.220215,215.411911 298.382751,217.828491 
	C300.490906,220.184265 302.800049,222.360184 305.229065,224.909027 
M290.791107,233.669189 
	C294.843903,232.697037 296.832336,229.446335 299.098206,226.606934 
	C292.696198,215.774277 280.478821,217.412933 275.997253,226.697754 
	C279.074310,232.174957 283.595978,234.784714 290.791107,233.669189 
z"/>
<path fill="#274027" opacity="1.000000" stroke="none" 
	d="
M256.482361,209.717133 
	C255.317688,208.743393 254.568909,207.791245 253.602325,207.188171 
	C245.536621,202.155685 246.288681,194.232956 246.759033,186.426041 
	C246.871445,184.560394 254.984879,175.517288 256.737671,175.122131 
	C257.192932,175.019501 257.728577,175.043274 258.177032,175.177216 
	C261.448608,176.154205 267.762146,185.533417 268.344421,189.006577 
	C269.774384,197.535858 266.355804,203.722137 259.843719,208.704224 
	C258.928986,209.404007 258.150787,210.358109 256.482361,209.717133 
M251.921234,190.624374 
	C251.242599,195.880463 251.898346,200.540726 257.453156,203.013504 
	C265.556793,197.371567 265.480438,187.431473 257.115295,181.973587 
	C254.562485,184.000885 251.852234,185.926270 251.921234,190.624374 
z"/>
<path fill="#274027" opacity="1.000000" stroke="none" 
	d="
M247.303329,253.103119 
	C249.863556,250.397034 252.270721,248.104950 254.496445,245.648422 
	C256.560211,243.370651 258.013092,244.044327 260.327087,245.672974 
	C267.958160,251.044022 268.815094,258.548126 267.829559,266.819977 
	C267.567291,269.021149 259.615387,278.194092 257.666504,278.561279 
	C257.213470,278.646637 256.684387,278.576782 256.241302,278.427277 
	C252.888443,277.295593 246.607727,268.505310 246.678680,264.846832 
	C246.752380,261.046204 246.212585,257.219238 247.303329,253.103119 
M255.551926,270.723663 
	C257.333618,272.201630 258.542633,271.013092 259.807373,269.853058 
	C265.068817,265.027191 263.801086,255.468552 257.272003,250.860413 
	C249.648911,256.198547 248.756454,263.923370 255.551926,270.723663 
z"/>
<path fill="#274027" opacity="1.000000" stroke="none" 
	d="
M266.175781,313.580872 
	C265.465729,316.504486 263.587952,318.182709 261.791840,319.641998 
	C262.493164,322.968811 265.584198,324.678802 265.924164,327.880371 
	C263.128937,329.604675 261.569061,328.034668 260.147308,325.993103 
	C259.100220,324.489563 258.057709,322.981232 256.957336,321.516998 
	C256.200317,320.509613 255.159164,320.012299 253.887039,320.370392 
	C252.451645,320.774414 252.413147,322.001495 252.366501,323.184814 
	C252.327133,324.183624 252.325684,325.183960 252.282715,326.182587 
	C252.225525,327.511566 251.731705,328.427673 250.192307,328.358643 
	C248.840012,328.297974 247.890259,327.687042 247.879333,326.284515 
	C247.830032,319.957306 247.827347,313.629303 247.891129,307.302399 
	C247.896652,306.753204 248.395554,305.872101 248.857529,305.716675 
	C253.280930,304.228577 257.788605,304.574829 262.089294,305.991882 
	C265.300751,307.050018 266.501862,309.837463 266.175781,313.580872 
M257.158417,309.192291 
	C254.886612,309.242676 252.337204,308.770508 252.354263,312.389465 
	C252.364227,314.505798 252.965759,315.921631 255.326233,315.980347 
	C257.664154,316.038513 260.241852,316.120117 261.222870,313.529205 
	C262.263275,310.781494 260.275482,309.746094 257.158417,309.192291 
z"/>
<path fill="#274027" opacity="1.000000" stroke="none" 
	d="
M314.615631,306.674225 
	C316.552643,304.567078 318.692474,304.310944 319.736755,306.592102 
	C322.886139,313.471710 325.643280,320.530914 328.693237,327.856049 
	C323.050781,329.797424 322.093506,323.175964 317.048767,323.426117 
	C312.291534,323.661987 311.225647,329.360260 305.685028,328.240875 
	C308.714233,320.884583 311.571838,313.945038 314.615631,306.674225 
M318.611786,314.298462 
	C318.210968,313.630524 317.810181,312.962555 317.068817,311.727081 
	C315.887268,314.616730 314.202942,316.645172 314.430786,319.682739 
	C316.437134,319.747925 318.213074,320.321991 320.219513,318.933746 
	C319.774902,317.635895 319.304901,316.264038 318.611786,314.298462 
z"/>
<path fill="#274027" opacity="1.000000" stroke="none" 
	d="
M233.397629,321.631226 
	C234.097183,323.976227 235.782852,325.710205 234.965271,328.350464 
	C230.267349,329.696075 229.805252,322.701477 224.402206,323.406952 
	C219.897232,323.995209 218.328949,328.632904 212.592499,329.036041 
	C215.126724,322.770905 217.020081,317.573334 219.336548,312.571716 
	C220.578506,309.890198 220.490860,305.436371 224.451050,305.415405 
	C228.496948,305.393921 228.077393,309.999725 229.509979,312.586212 
	C231.032364,315.334869 232.030548,318.373840 233.397629,321.631226 
M223.377777,313.645630 
	C222.806213,315.463379 221.353989,317.072632 222.005798,319.254669 
	C223.763718,320.033844 225.436920,320.293793 227.381958,318.801910 
	C226.198898,316.843323 227.455826,313.485168 223.377777,313.645630 
z"/>
<path fill="#274027" opacity="1.000000" stroke="none" 
	d="
M199.555023,305.256073 
	C201.865494,308.228943 198.699097,309.012482 197.571732,310.355652 
	C192.588028,316.293396 192.532761,316.188141 197.585815,322.122833 
	C199.062424,323.857056 200.961716,325.322662 201.879578,328.259552 
	C194.632996,329.740234 193.751709,321.809509 189.010223,320.016235 
	C187.233826,321.583344 188.271591,323.740845 187.915833,325.593475 
	C187.659805,326.926819 187.561966,328.366486 185.733047,328.381439 
	C183.846146,328.396851 183.698593,326.982819 183.693466,325.601868 
	C183.671814,319.773560 183.674850,313.945038 183.696701,308.116699 
	C183.701187,306.919189 183.858002,305.643890 185.367218,305.476410 
	C187.128540,305.280945 187.630417,306.564697 187.793686,307.989868 
	C187.998138,309.774811 188.121887,311.569031 188.304977,313.635834 
	C192.835602,311.572540 193.973297,305.689758 199.555023,305.256073 
z"/>
<path fill="#274027" opacity="1.000000" stroke="none" 
	d="
M287.493164,313.553436 
	C288.977753,311.426788 290.223358,309.463348 291.476654,307.504761 
	C292.628632,305.704559 293.960083,304.336670 296.570312,305.605042 
	C296.717865,308.667236 294.493866,310.725586 293.075409,312.986145 
	C290.637482,316.871429 288.558655,320.711609 289.134705,325.518799 
	C289.295990,326.864990 288.998474,328.275146 287.157867,328.380768 
	C285.804077,328.458496 284.635010,327.825226 284.829865,326.439728 
	C285.870422,319.040161 280.712402,314.093414 277.836884,308.243927 
	C277.549133,307.658600 277.347382,307.030975 276.980682,306.108276 
	C279.582947,304.330444 281.119324,305.338928 282.557068,307.655060 
	C283.904205,309.825226 284.500885,312.627625 287.493164,313.553436 
z"/>
</svg>